<svg width="225" height="174" viewBox="0 0 225 174" fill="none" xmlns="http://www.w3.org/2000/svg">
<path d="M224.4 87.0999C224.4 61.4999 216.3 40.5999 200.1 24.4999C183.9 8.29992 160.4 0.299927 129.7 0.299927H68.8999V148.7H82.2999V11.3999H130.4C153.8 11.3999 172.9 18.3999 187.7 32.4999C202.4 46.5999 209.8 64.7999 209.8 87.0999C209.8 109.9 202.3 128.2 187.4 142C173 155.3 155.2 162.1 133.9 162.6V173.8C162.5 173.5 184.7 165.3 200.3 149.3C216.4 132.9 224.4 112.2 224.4 87.0999Z" fill="black"/>
<path d="M13.8001 162.7V0.199951H0.400146V173.8H119.9V162.7H13.8001Z" fill="#2E6A2D"/>
</svg>
