<svg width="974" height="174" viewBox="0 0 974 174" fill="none" xmlns="http://www.w3.org/2000/svg">
<path d="M224 86.9C224 61.3 215.9 40.4 199.7 24.3C183.5 8.09997 160 0.0999756 129.3 0.0999756H68.4998V148.5H81.8997V11.2H130C153.4 11.2 172.5 18.2 187.3 32.3C202 46.4 209.4 64.6 209.4 86.9C209.4 109.7 201.9 128 187 141.8C172.6 155.1 154.8 161.9 133.5 162.4V173.6C162.1 173.3 184.3 165.1 199.9 149.1C216 132.7 224 112 224 86.9Z" fill="white"/>
<path d="M13.4 162.5V0H0V173.6H119.5V162.5H13.4Z" fill="white"/>
<path d="M267 65.8H279.2V162.4H339.9V173.6H267V65.8Z" fill="white"/>
<path d="M440.3 76.9001H374.5V113.7H433.4V124.8H374.5V162.5H441.1V173.6H362.4V65.8H440.4V76.9001H440.3Z" fill="white"/>
<path d="M540.5 173.6L506 127.2L471.5 173.6H457.5L498.9 118.6L459 65.8H473.3L506.4 109.9L539.2 65.8H553.4L513.5 118.5L554.9 173.7H540.5V173.6Z" fill="white"/>
<path d="M578.1 65.8H613.2C647.1 65.8 670.5 89.2 670.5 119.6V119.9C670.5 150.3 647.1 173.7 613.2 173.7H578.1V65.8ZM613.3 168.8C644.3 168.8 665.1 147.2 665.1 120V119.7C665.1 92.4 644.3 70.6 613.2 70.6H583.3V168.9H613.3V168.8Z" fill="white"/>
<path d="M824.7 70.5H786.3V65.7H868.4V70.5H829.9V173.6H824.7V70.5Z" fill="white"/>
<path d="M737.1 65H732.1L681 173.6H686.4L734.4 71.2L782.5 173.6H788.2L737.1 65Z" fill="white"/>
<path d="M922.4 65H917.5L866.3 173.6H871.7L919.8 71.2L967.9 173.6H973.6L922.4 65Z" fill="white"/>
</svg>
