<svg width="707" height="109" viewBox="0 0 707 109" fill="none" xmlns="http://www.w3.org/2000/svg">
<path d="M0 0.800049H12.2V97.4001H72.9V108.6H0V0.800049Z" fill="#D0B56E"/>
<path d="M173.3 11.9001H107.5V48.7H166.4V59.8H107.5V97.5001H174.1V108.6H95.3999V0.800049H173.4V11.9001H173.3Z" fill="#D0B56E"/>
<path d="M273.5 108.6L239 62.2L204.5 108.6H190.5L231.9 53.6L192 0.800049H206.3L239.4 44.9001L272.2 0.800049H286.4L246.5 53.5001L287.9 108.7H273.5V108.6Z" fill="#D0B56E"/>
<path d="M311.1 0.800049H346.2C380.1 0.800049 403.5 24.2 403.5 54.6V54.9001C403.5 85.3001 380.1 108.7 346.2 108.7H311.1V0.800049ZM346.3 103.8C377.3 103.8 398.1 82.2001 398.1 55.0001V54.7C398.1 27.4 377.3 5.60004 346.2 5.60004H316.3V103.9H346.3V103.8Z" fill="#D0B56E"/>
<path d="M557.7 5.49997H519.3V0.699951H601.4V5.49997H562.9V108.6H557.7V5.49997Z" fill="#D0B56E"/>
<path d="M434.2 77.2L419.4 108.6L434.2 77.2Z" fill="#D0B56E"/>
<path d="M500.8 77.2L515.5 108.6L500.9 77.2H500.8Z" fill="#D0B56E"/>
<path d="M470.1 0H465.1L414 108.6H419.4L467.4 6.19998L515.5 108.6H521.2L470.1 0Z" fill="#D0B56E"/>
<path d="M619.5 77.2L604.7 108.6L619.6 77.2H619.5Z" fill="#D0B56E"/>
<path d="M686.2 77.2L700.9 108.6L686.2 77.2Z" fill="#D0B56E"/>
<path d="M655.4 0H650.5L599.3 108.6H604.7L652.8 6.19998L700.9 108.6H706.6L655.4 0Z" fill="#D0B56E"/>
</svg>
